<?xml version="1.0" standalone="no"?>
<!DOCTYPE svg PUBLIC "-//W3C//DTD SVG 20010904//EN"
 "http://www.w3.org/TR/2001/REC-SVG-20010904/DTD/svg10.dtd">
<svg version="1.0" xmlns="http://www.w3.org/2000/svg"
 width="600.000000pt" height="620.000000pt" viewBox="0 0 600.000000 620.000000"
 preserveAspectRatio="xMidYMid meet">

<g transform="translate(0.000000,620.000000) scale(0.100000,-0.100000)"
fill="#000000" stroke="none">
<path d="M1970 4374 c-206 -218 -408 -432 -449 -476 l-73 -79 118 84 c152 106
342 234 429 287 53 33 70 39 77 28 5 -7 6 -102 3 -218 -8 -266 -25 -724 -28
-725 -4 -2 -334 -108 -397 -127 -105 -32 -210 -70 -210 -75 0 -3 17 -2 38 2
20 4 48 9 62 11 53 9 137 26 170 34 19 5 104 22 188 37 l152 29 0 -39 c0 -59
-12 -73 -72 -82 -86 -12 -90 -13 -158 -24 -36 -6 -85 -13 -109 -16 -25 -3 -63
-10 -85 -15 -23 -5 -59 -10 -81 -10 -22 -1 -48 -5 -57 -8 -10 -4 164 -7 387
-7 222 1 406 3 408 5 6 7 14 248 33 1010 l17 665 23 25 c21 23 29 25 98 22 42
-2 76 -8 76 -12 0 -5 -24 -25 -54 -44 -51 -32 -54 -37 -61 -85 -4 -27 -4 -55
0 -61 4 -6 -6 -15 -23 -21 -29 -10 -31 -14 -34 -72 -3 -34 -6 -165 -7 -292 -1
-126 -6 -387 -11 -580 -5 -192 -10 -380 -10 -416 l0 -67 41 -10 c72 -18 131
-71 141 -127 2 -15 -4 -21 -27 -25 -61 -11 -90 -140 -82 -365 5 -146 23 -231
54 -256 12 -10 50 -14 141 -14 118 0 125 1 139 23 15 22 16 22 332 23 174 1
402 4 506 8 l190 6 31 -32 c31 -33 31 -33 133 -33 108 0 149 11 207 55 26 20
49 26 126 32 l93 8 32 80 33 80 0 187 0 187 -35 12 c-40 15 -41 24 -18 94 14
41 17 100 18 339 l2 289 32 26 31 26 0 111 c0 85 -3 113 -14 117 -7 3 -16 15
-19 26 -4 16 0 21 13 21 16 0 12 14 -30 103 -32 69 -56 107 -74 117 -29 17
-32 23 -41 101 -6 52 -9 57 -33 62 -20 4 -41 25 -76 76 -78 115 -207 201 -339
226 -159 30 -556 66 -952 85 -181 9 -410 29 -510 45 -28 4 -51 -17 -405 -391z
m835 316 c510 -34 974 -80 1060 -105 65 -19 136 -74 199 -155 l51 -65 -72 62
c-95 82 -149 112 -220 123 -51 8 -451 43 -921 81 -84 7 -155 9 -159 6 -3 -4
-8 -40 -11 -82 -2 -41 -9 -75 -13 -75 -5 0 -9 12 -9 28 0 74 -37 136 -110 184
l-25 17 35 -4 c19 -3 107 -9 195 -15z m675 -340 c382 -28 709 -53 726 -55 24
-4 33 -12 36 -30 5 -23 2 -25 -34 -25 -46 0 -1288 67 -1405 76 l-83 6 0 43 c0
44 0 44 33 39 17 -2 345 -27 727 -54z m-125 -130 c444 -20 821 -42 850 -49 35
-8 41 -28 75 -221 26 -145 34 -260 21 -280 -9 -13 -64 -15 -402 -13 -379 2
-915 17 -1011 29 -47 6 -48 6 -63 57 -17 58 -50 280 -61 405 l-7 82 189 0
c104 0 288 -5 409 -10z m-778 -243 l-6 -232 54 -43 c60 -46 65 -56 36 -72 -16
-8 -27 -1 -71 50 l-52 60 -64 0 -64 0 0 204 c0 112 3 218 6 235 l7 31 80 0 80
0 -6 -233z m1610 -583 l92 -6 -20 -39 -19 -39 -608 2 -607 3 -11 25 c-7 14
-15 35 -18 46 l-6 21 552 -4 c304 -2 595 -6 645 -9z m33 -143 c0 -6 -10 -21
-22 -35 l-23 -26 -537 -6 -538 -5 -20 33 c-11 18 -20 36 -20 41 0 4 261 7 580
7 357 0 580 -4 580 -9z m-40 -122 c0 -6 -13 -24 -29 -40 l-29 -29 -224 0
c-123 -1 -308 -3 -413 -6 -104 -2 -223 -1 -263 2 -69 6 -75 9 -93 38 -10 17
-19 34 -19 39 0 4 241 7 535 7 375 0 535 -3 535 -11z m-153 -275 l61 -5 -10
-30 c-21 -62 -35 -64 -424 -64 -281 0 -354 3 -367 14 -16 13 -40 78 -32 90 4
8 684 3 772 -5z m-1529 -60 c9 -31 14 -108 14 -214 0 -221 -27 -323 -63 -238
-19 46 -20 417 -1 471 18 49 34 43 50 -19z m624 -39 c4 -27 5 -51 3 -53 -2 -2
-74 -1 -159 3 l-156 8 0 49 0 49 152 -3 153 -3 7 -50z m1278 16 l0 -39 -101
-7 c-55 -4 -101 -6 -103 -4 -2 2 -1 23 2 47 l4 42 99 0 99 0 0 -39z m-1395
-117 c72 -9 131 -17 131 -18 1 0 5 -29 9 -63 8 -75 15 -73 -135 -39 -161 37
-177 47 -194 120 -7 28 -6 28 26 23 18 -4 92 -14 163 -23z m1392 -16 c-8 -60
-39 -78 -166 -94 l-54 -7 5 57 c3 31 7 58 9 61 3 2 48 8 100 13 51 5 98 10
103 11 5 0 6 -18 3 -41z m-407 13 c0 -34 -44 -86 -85 -100 -47 -16 -441 -19
-490 -4 -31 10 -95 83 -95 109 0 12 53 14 335 13 315 0 335 -1 335 -18z"/>
<path d="M2456 2653 c-13 -79 -3 -239 14 -228 22 13 22 265 0 265 -4 0 -10
-17 -14 -37z"/>
<path d="M2026 2938 c-9 -12 -16 -29 -16 -37 0 -12 -23 -13 -142 -7 -122 6
-145 10 -158 25 -18 22 -95 38 -105 22 -3 -6 -21 -11 -40 -11 -28 0 -35 -5
-44 -31 -6 -18 -11 -67 -11 -109 0 -103 13 -140 50 -140 15 0 33 -7 40 -15 9
-11 32 -15 80 -15 73 0 79 6 80 69 0 14 5 21 13 19 6 -3 55 -20 107 -38 52
-18 100 -39 106 -47 6 -7 14 -35 18 -61 11 -85 22 -92 135 -92 82 0 101 3 114
18 10 10 17 24 17 30 0 16 10 15 53 -3 59 -24 60 -22 53 53 -8 83 9 265 28
303 l14 29 -137 0 c-135 0 -138 0 -184 30 -26 17 -50 30 -52 30 -2 0 -11 -10
-19 -22z m-392 -158 c0 -59 -5 -114 -11 -125 -11 -19 -12 -19 -22 8 -6 16 -11
68 -11 117 0 49 5 101 11 117 10 27 11 27 22 8 7 -12 12 -63 11 -125z m442 42
c15 -139 -7 -335 -36 -317 -32 20 -40 339 -10 394 12 23 13 23 26 7 7 -10 16
-47 20 -84z m-520 42 c7 -49 1 -181 -10 -191 -14 -14 -21 12 -25 88 -5 130 19
205 35 103z m432 -92 c10 -30 -6 -40 -45 -32 -21 4 -70 13 -110 20 -55 9 -72
16 -76 30 -3 10 -3 21 -1 23 9 9 228 -29 232 -41z"/>
<path d="M1604 2794 c-3 -19 -2 -50 4 -67 9 -29 10 -25 11 36 1 74 -5 86 -15
31z"/>
<path d="M2037 2780 c-9 -33 -8 -150 2 -175 14 -33 25 88 15 148 -8 44 -11 48
-17 27z"/>
<path d="M1532 2780 c0 -48 1 -52 10 -27 6 18 6 36 0 55 -9 24 -10 20 -10 -28z"/>
<path d="M2681 2139 c-213 -11 -362 -25 -301 -29 37 -2 41 -3 20 -9 -14 -4
-24 -13 -22 -19 1 -7 -10 -12 -25 -13 l-28 -1 25 -8 c25 -8 25 -8 -5 -10 l-30
-2 30 -11 30 -11 -30 -7 c-29 -6 -29 -7 10 -9 l40 -3 -40 -6 c-22 -3 390 -6
915 -6 525 0 942 1 925 3 -16 1 -55 5 -85 9 -49 6 -52 7 -25 14 17 3 23 7 14
8 -9 0 -20 8 -23 17 -5 14 -4 15 8 5 10 -8 16 -9 21 -1 3 5 1 10 -6 10 -11 0
-10 2 0 13 10 10 3 14 -36 24 l-48 11 55 2 55 3 -75 8 c-264 27 -996 37 -1369
18z"/>
<path d="M2251 2106 c2 -2 27 -6 54 -9 32 -4 43 -3 30 3 -19 8 -93 14 -84 6z"/>
<path d="M2228 1983 c18 -2 45 -2 60 0 15 2 0 4 -33 4 -33 0 -45 -2 -27 -4z"/>
<path d="M3240 1730 c0 -5 12 -10 26 -10 14 0 23 4 19 10 -3 6 -15 10 -26 10
-10 0 -19 -4 -19 -10z"/>
<path d="M2332 100 c0 -40 2 -47 7 -26 9 42 29 44 34 4 l5 -33 -2 35 c-1 24
-6 35 -16 35 -8 0 -18 9 -22 20 -3 11 -6 -4 -6 -35z"/>
<path d="M2933 100 c0 -30 1 -47 4 -37 5 18 5 18 25 0 21 -18 21 -18 9 5 -10
19 -10 27 1 40 10 13 8 13 -9 -1 -21 -19 -22 -19 -26 15 -2 20 -4 11 -4 -22z"/>
<path d="M3367 143 c-4 -3 -7 -11 -7 -17 0 -6 5 -5 12 2 17 17 28 15 28 -6 0
-11 -9 -27 -20 -37 -28 -26 -25 -35 13 -34 23 1 26 3 10 6 l-23 4 22 29 c17
24 19 32 8 45 -13 16 -32 20 -43 8z"/>
<path d="M3449 133 c-12 -15 -12 -16 4 -10 14 5 17 1 17 -27 0 -19 -6 -37 -12
-39 -7 -3 1 -5 17 -5 17 0 24 2 18 5 -8 3 -13 23 -13 49 0 47 -9 55 -31 27z"/>
<path d="M3532 117 l-22 -32 25 -3 c15 -2 25 -10 26 -20 0 -15 1 -15 8 1 8 21
2 87 -8 87 -3 0 -16 -15 -29 -33z m28 -7 c0 -11 -7 -20 -15 -20 -18 0 -19 12
-3 28 16 16 18 15 18 -8z"/>
<path d="M3601 128 c-10 -28 -2 -68 15 -75 21 -8 44 16 44 46 0 48 -44 70 -59
29z m44 -29 c0 -24 -5 -34 -15 -34 -16 0 -25 37 -16 62 10 26 31 8 31 -28z"/>
<path d="M3686 138 c-10 -29 -1 -83 14 -85 30 -6 41 11 32 53 -8 39 -38 60
-46 32z m34 -13 c0 -8 -7 -15 -15 -15 -8 0 -15 7 -15 15 0 8 7 15 15 15 8 0
15 -7 15 -15z m5 -45 c0 -8 -8 -16 -17 -18 -13 -2 -18 3 -18 18 0 15 5 20 18
18 9 -2 17 -10 17 -18z"/>
<path d="M3782 143 l28 -4 -20 -39 c-28 -56 -24 -64 5 -10 31 58 31 60 -7 59
-31 -2 -31 -2 -6 -6z"/>
<path d="M3850 133 c0 -11 3 -14 8 -7 4 6 14 14 22 17 10 4 8 6 -7 6 -16 1
-23 -5 -23 -16z"/>
<path d="M3927 143 c-4 -3 -7 -11 -7 -17 0 -6 5 -5 12 2 17 17 28 15 28 -6 0
-11 -9 -27 -20 -37 -28 -26 -25 -35 13 -34 29 1 30 2 7 8 -18 5 -21 9 -12 15
20 12 31 49 20 64 -11 13 -31 16 -41 5z"/>
<path d="M4007 143 c-4 -3 -7 -11 -7 -17 0 -6 5 -5 12 2 17 17 28 15 28 -6 0
-11 -9 -27 -20 -37 -28 -26 -25 -35 13 -34 23 1 26 3 10 6 l-23 4 22 29 c17
24 19 32 8 45 -13 16 -32 20 -43 8z"/>
<path d="M2467 124 c-9 -9 9 -68 22 -72 10 -3 11 0 5 9 -13 21 -14 43 -3 50 7
4 5 8 -4 12 -8 3 -17 4 -20 1z"/>
<path d="M2754 123 c-16 -5 -2 -65 16 -71 12 -4 13 -2 3 9 -16 17 -17 46 -1
51 7 3 8 7 3 10 -6 3 -15 3 -21 1z"/>
<path d="M1943 85 c10 -35 27 -48 27 -20 0 8 -4 15 -10 15 -5 0 -10 9 -10 20
0 11 -4 20 -9 20 -5 0 -4 -15 2 -35z"/>
<path d="M1976 111 c-5 -7 -4 -16 1 -20 5 -3 13 -15 17 -26 8 -18 10 -16 24
15 l15 35 10 -32 c10 -34 27 -45 27 -18 0 8 -4 15 -10 15 -5 0 -10 9 -10 21 0
29 -33 21 -40 -11 l-6 -25 -10 30 c-7 21 -13 25 -18 16z"/>
<path d="M2076 111 c-5 -7 -4 -16 1 -20 5 -3 13 -15 17 -26 8 -18 10 -16 24
15 l15 35 10 -32 c12 -39 22 -42 31 -10 l7 22 10 -25 c8 -20 12 -22 18 -10 17
30 24 63 12 56 -6 -4 -11 -17 -12 -29 -1 -19 -2 -18 -14 8 -14 29 -15 29 -21
8 -8 -29 -24 -30 -24 -2 0 29 -33 21 -40 -11 l-6 -25 -10 30 c-7 21 -13 25
-18 16z"/>
<path d="M2274 108 c-4 -6 0 -16 9 -23 22 -16 21 -22 0 -28 -16 -4 -16 -5 -1
-6 26 -2 33 20 12 36 -16 12 -17 15 -4 23 9 6 10 10 3 10 -6 0 -15 -5 -19 -12z"/>
<path d="M2404 91 c0 -21 7 -36 16 -38 10 -3 11 -2 3 4 -6 4 -13 22 -16 38 -4
27 -5 27 -3 -4z"/>
<path d="M2443 85 c0 -22 2 -30 4 -17 2 12 2 30 0 40 -3 9 -5 -1 -4 -23z"/>
<path d="M2519 88 c4 -17 13 -34 21 -36 12 -4 13 -2 3 9 -7 7 -13 21 -13 30 0
10 6 20 13 22 6 3 2 6 -9 6 -19 1 -21 -3 -15 -31z"/>
<path d="M2574 106 c-9 -23 0 -51 16 -52 9 0 10 1 3 3 -21 7 -15 23 8 23 14 0
19 5 17 17 -4 23 -36 29 -44 9z m36 -6 c0 -5 -7 -10 -15 -10 -8 0 -15 5 -15
10 0 6 7 10 15 10 8 0 15 -4 15 -10z"/>
<path d="M2641 81 c1 -28 3 -30 6 -11 3 14 9 30 14 36 5 7 3 11 -6 11 -11 0
-15 -11 -14 -36z"/>
<path d="M2694 108 c-4 -6 0 -16 9 -23 22 -16 21 -22 0 -28 -16 -4 -16 -5 -1
-6 26 -2 33 20 12 36 -16 12 -17 15 -4 23 9 6 10 10 3 10 -6 0 -15 -5 -19 -12z"/>
<path d="M2807 114 c-13 -13 -7 -55 9 -61 24 -9 51 23 38 45 -12 19 -36 27
-47 16z m38 -29 c0 -11 -8 -21 -17 -23 -14 -3 -18 3 -18 23 0 20 4 26 18 23 9
-2 17 -12 17 -23z"/>
<path d="M2874 106 c-9 -23 0 -51 16 -52 9 0 10 1 3 3 -20 7 -16 51 5 56 16 4
16 5 -1 6 -10 0 -20 -5 -23 -13z"/>
<path d="M3034 106 c-9 -23 0 -51 16 -52 9 0 10 1 3 3 -20 7 -16 51 5 56 16 4
16 5 -1 6 -10 0 -20 -5 -23 -13z"/>
<path d="M3097 114 c-13 -13 -7 -55 9 -61 24 -9 51 23 38 45 -12 19 -36 27
-47 16z m37 -20 c8 -20 -1 -34 -20 -34 -8 0 -14 10 -14 25 0 28 24 34 34 9z"/>
<path d="M3163 85 c0 -22 2 -30 4 -17 2 12 2 30 0 40 -3 9 -5 -1 -4 -23z"/>
<path d="M3187 112 c6 -4 13 -21 16 -37 l4 -30 2 33 c1 41 23 39 33 -4 6 -27
6 -27 5 6 -2 32 -4 35 -36 37 -19 1 -30 -2 -24 -5z"/>
<path d="M3858 103 c26 -5 30 -39 5 -46 -15 -4 -15 -5 -2 -6 9 0 22 6 29 14
16 20 -4 46 -34 44 -20 -2 -20 -2 2 -6z"/>
</g>
</svg>
